<svg width="145" height="23" viewBox="0 0 145 23" fill="none" xmlns="http://www.w3.org/2000/svg">
<path d="M10.232 9.11999C11.672 8.37599 12.584 7.00799 12.584 5.37599C12.584 2.92799 10.856 1.31999 7.95199 1.31999H0.679993V18H7.73599C11.192 18 13.16 16.128 13.16 13.296C13.16 11.352 12.08 9.83999 10.232 9.11999ZM9.53599 5.97599C9.53599 7.31999 8.47999 8.15999 7.03999 8.15999H3.70399V3.79199H7.08799C8.71999 3.79199 9.53599 4.67999 9.53599 5.97599ZM7.30399 15.528H3.70399V10.632H7.27999C8.98399 10.632 10.112 11.52 10.112 13.08C10.112 14.64 9.07999 15.528 7.30399 15.528Z" fill="black"/>
<path d="M25.2314 5.35199V7.15199C24.2954 5.92799 22.8794 5.25599 21.0554 5.25599C17.4314 5.25599 14.7914 7.89599 14.7914 11.688C14.7914 15.456 17.4314 18.288 21.0554 18.288C22.8794 18.288 24.2954 17.544 25.2314 16.296V18H28.0634V5.35199H25.2314ZM21.4634 15.6C19.3754 15.6 17.8394 13.944 17.8394 11.688C17.8394 9.43199 19.3754 7.77599 21.4634 7.77599C23.6474 7.77599 25.1354 9.35999 25.1354 11.688C25.1354 13.992 23.6474 15.6 21.4634 15.6Z" fill="black"/>
<path d="M39.5967 5.35199L36.0207 15.552L32.7567 5.35199H29.6127L34.0767 18H35.0367L33.3087 22.296H36.3087L37.9407 18L42.7647 5.35199H39.5967Z" fill="black"/>
<path d="M49.7039 18.288C53.0639 18.288 55.1759 16.176 55.7519 14.256L53.0159 13.152C52.6079 14.592 51.4079 15.576 49.7759 15.576C47.7359 15.576 46.1519 14.04 46.1519 11.688C46.1519 9.33599 47.7359 7.79999 49.7519 7.79999C51.3839 7.79999 52.5359 8.78399 52.9439 10.248L55.6799 9.16799C55.1039 7.19999 52.9919 5.08799 49.7039 5.08799C45.8879 5.08799 43.1039 7.96799 43.1039 11.712C43.1039 15.456 45.9359 18.288 49.7039 18.288Z" fill="black"/>
<path d="M66.0526 5.35199V13.008C66.0526 14.4 64.9486 15.552 63.2446 15.576C61.5406 15.576 60.4606 14.448 60.4606 12.816V5.35199H57.4126V13.2C57.4126 16.128 59.1406 18.288 62.3566 18.288C63.9886 18.288 65.3566 17.592 66.2446 16.608V18H69.1006V5.35199H66.0526Z" fill="black"/>
<path d="M78.7878 5.06399C77.0598 5.06399 75.6678 5.75999 74.8038 6.74399V5.35199H71.9238V18H74.9718V10.392C74.9958 8.97599 76.2438 7.79999 77.8998 7.77599C79.6278 7.77599 80.7558 8.85599 80.7558 10.68V18H83.8278V10.104C83.8278 7.10399 81.9078 5.06399 78.7878 5.06399Z" fill="black"/>
<path d="M96.3174 5.35199V7.00799C95.3814 5.80799 93.9654 5.06399 92.1414 5.06399C88.5174 5.06399 85.8774 7.89599 85.8774 11.4C85.8774 14.904 88.5174 17.664 92.1414 17.664C93.9654 17.664 95.3814 16.92 96.3174 15.72V16.44C96.3174 18.624 94.8294 20.04 92.3814 20.04C90.6054 20.04 89.2614 19.296 88.7094 17.832L86.0934 18.84C86.9334 21.096 88.9254 22.584 92.3574 22.584C96.6534 22.584 99.1494 19.992 99.1494 16.176V5.35199H96.3174ZM92.5014 15.312C90.4614 15.312 88.9254 13.68 88.9254 11.544C88.9254 9.40799 90.4614 7.77599 92.5494 7.77599C94.6614 7.77599 96.1254 9.35999 96.1254 11.544C96.1254 13.728 94.6374 15.312 92.5014 15.312Z" fill="black"/>
<path d="M109.027 5.06399C107.347 5.06399 105.979 5.68799 104.995 6.74399V0.455994H101.947V18H104.779V16.392C105.763 17.592 107.179 18.288 108.955 18.288C112.579 18.288 115.219 15.456 115.219 11.688C115.219 7.89599 112.651 5.06399 109.027 5.06399ZM108.547 15.6C106.363 15.6 104.875 13.992 104.875 11.688C104.875 9.35999 106.363 7.77599 108.547 7.77599C110.635 7.77599 112.171 9.43199 112.171 11.688C112.171 13.944 110.635 15.6 108.547 15.6Z" fill="black"/>
<path d="M127.185 5.35199V7.15199C126.249 5.92799 124.833 5.25599 123.009 5.25599C119.385 5.25599 116.745 7.89599 116.745 11.688C116.745 15.456 119.385 18.288 123.009 18.288C124.833 18.288 126.249 17.544 127.185 16.296V18H130.017V5.35199H127.185ZM123.417 15.6C121.329 15.6 119.793 13.944 119.793 11.688C119.793 9.43199 121.329 7.77599 123.417 7.77599C125.601 7.77599 127.089 9.35999 127.089 11.688C127.089 13.992 125.601 15.6 123.417 15.6Z" fill="black"/>
<path d="M139.702 5.06399C137.974 5.06399 136.582 5.75999 135.718 6.74399V5.35199H132.838V18H135.886V10.392C135.91 8.97599 137.158 7.79999 138.814 7.77599C140.542 7.77599 141.67 8.85599 141.67 10.68V18H144.742V10.104C144.742 7.10399 142.822 5.06399 139.702 5.06399Z" fill="black"/>
</svg>
