<svg width="18" height="18" viewBox="0 0 18 18" fill="none" xmlns="http://www.w3.org/2000/svg">
<g clip-path="url(#clip0_1_233)">
<path d="M8.99996 0C7.21992 0 5.47986 0.527841 3.99982 1.51677C2.51977 2.50571 1.36622 3.91131 0.685028 5.55585C0.00383851 7.20038 -0.174392 9.00998 0.172876 10.7558C0.520143 12.5016 1.37731 14.1053 2.63599 15.364C3.89466 16.6226 5.49831 17.4798 7.24414 17.8271C8.98997 18.1743 10.7996 17.9961 12.4441 17.3149C14.0886 16.6337 15.4943 15.4802 16.4832 14.0001C17.4721 12.5201 18 10.78 18 9C18 6.61305 17.0518 4.32387 15.3639 2.63604C13.6761 0.948211 11.3869 0 8.99996 0V0ZM11.5602 5.85711C11.5602 6.02645 11.4892 6.09395 11.3234 6.09395C11.0048 6.09395 10.6863 6.09395 10.3689 6.10697C10.0515 6.12 9.87864 6.26447 9.87864 6.59605C9.87154 6.95132 9.87864 7.29947 9.87864 7.66184H11.2417C11.4359 7.66184 11.5022 7.72816 11.5022 7.92355C11.5022 8.39724 11.5022 8.87329 11.5022 9.35171C11.5022 9.54474 11.4406 9.60513 11.2452 9.60632H9.8668V13.4597C9.8668 13.6658 9.80285 13.7309 9.59917 13.7309H8.11653C7.93772 13.7309 7.86785 13.6611 7.86785 13.4822V9.61224H6.69074C6.50601 9.61224 6.43969 9.54474 6.43969 9.35882C6.43969 8.87961 6.43969 8.40079 6.43969 7.92237C6.43969 7.73763 6.50956 7.66776 6.69193 7.66776H7.86785V6.63158C7.85389 6.16614 7.96557 5.70553 8.19114 5.29816C8.42563 4.88689 8.80138 4.57468 9.24864 4.41947C9.5389 4.31386 9.84569 4.26092 10.1546 4.26316H11.3186C11.4856 4.26316 11.5555 4.33658 11.5555 4.5C11.5614 4.95592 11.5614 5.40711 11.5602 5.85711Z" fill="#4D46FA"/>
</g>
<defs>
<clipPath id="clip0_1_233">
<rect width="18" height="18" fill="white"/>
</clipPath>
</defs>
</svg>
