<svg width="18" height="18" viewBox="0 0 18 18" fill="none" xmlns="http://www.w3.org/2000/svg">
<g clip-path="url(#clip0_1_241)">
<path d="M10.7227 9C10.7227 9.95142 9.95142 10.7227 9 10.7227C8.04858 10.7227 7.27734 9.95142 7.27734 9C7.27734 8.04858 8.04858 7.27734 9 7.27734C9.95142 7.27734 10.7227 8.04858 10.7227 9Z" fill="#4D46FA"/>
<path d="M13.0287 5.9521C12.9459 5.72771 12.8138 5.5246 12.6421 5.35788C12.4754 5.18622 12.2724 5.05411 12.0479 4.9713C11.8658 4.90057 11.5922 4.81639 11.0884 4.79346C10.5433 4.7686 10.3799 4.76324 9 4.76324C7.61998 4.76324 7.45656 4.76846 6.91164 4.79332C6.40778 4.81639 6.13408 4.90057 5.95212 4.9713C5.72758 5.05411 5.52448 5.18622 5.35789 5.35788C5.18623 5.5246 5.05412 5.72757 4.97118 5.9521C4.90045 6.1342 4.81627 6.4079 4.79333 6.91176C4.76848 7.45668 4.76312 7.6201 4.76312 9.00012C4.76312 10.38 4.76848 10.5434 4.79333 11.0885C4.81627 11.5923 4.90045 11.8659 4.97118 12.048C5.05412 12.2725 5.1861 12.4755 5.35776 12.6422C5.52448 12.8139 5.72745 12.946 5.95198 13.0288C6.13408 13.0997 6.40778 13.1839 6.91164 13.2068C7.45656 13.2316 7.61984 13.2369 8.99986 13.2369C10.38 13.2369 10.5434 13.2316 11.0882 13.2068C11.5921 13.1839 11.8658 13.0997 12.0479 13.0288C12.4986 12.8549 12.8548 12.4987 13.0287 12.048C13.0994 11.8659 13.1836 11.5923 13.2067 11.0885C13.2315 10.5434 13.2367 10.38 13.2367 9.00012C13.2367 7.6201 13.2315 7.45668 13.2067 6.91176C13.1837 6.4079 13.0995 6.1342 13.0287 5.9521ZM9 11.6537C7.53429 11.6537 6.34612 10.4657 6.34612 8.99998C6.34612 7.53427 7.53429 6.34624 9 6.34624C10.4656 6.34624 11.6537 7.53427 11.6537 8.99998C11.6537 10.4657 10.4656 11.6537 9 11.6537ZM11.7587 6.8615C11.4162 6.8615 11.1385 6.58382 11.1385 6.24132C11.1385 5.89882 11.4162 5.62114 11.7587 5.62114C12.1012 5.62114 12.3788 5.89882 12.3788 6.24132C12.3787 6.58382 12.1012 6.8615 11.7587 6.8615Z" fill="#4D46FA"/>
<path d="M9 0C4.0302 0 0 4.0302 0 9C0 13.9698 4.0302 18 9 18C13.9698 18 18 13.9698 18 9C18 4.0302 13.9698 0 9 0ZM14.1368 11.1307C14.1118 11.6808 14.0243 12.0564 13.8966 12.3852C13.6281 13.0794 13.0794 13.6281 12.3852 13.8966C12.0565 14.0243 11.6808 14.1117 11.1308 14.1368C10.5797 14.1619 10.4036 14.168 9.00014 14.168C7.5965 14.168 7.42058 14.1619 6.86934 14.1368C6.31934 14.1117 5.9436 14.0243 5.61497 13.8966C5.27 13.7668 4.95772 13.5634 4.69954 13.3005C4.43669 13.0424 4.23331 12.73 4.10353 12.3852C3.97581 12.0565 3.88834 11.6808 3.86334 11.1308C3.83794 10.5796 3.83203 10.4035 3.83203 9C3.83203 7.5965 3.83794 7.42044 3.8632 6.86934C3.8882 6.3192 3.97554 5.9436 4.10326 5.61484C4.23303 5.27 4.43655 4.95758 4.69954 4.69954C4.95758 4.43655 5.27 4.23317 5.61484 4.10339C5.9436 3.97568 6.3192 3.88834 6.86934 3.8632C7.42044 3.83807 7.5965 3.83203 9 3.83203C10.4035 3.83203 10.5796 3.83807 11.1307 3.86334C11.6808 3.88834 12.0564 3.97568 12.3852 4.10326C12.73 4.23303 13.0424 4.43655 13.3006 4.69954C13.5634 4.95772 13.767 5.27 13.8966 5.61484C14.0245 5.9436 14.1118 6.3192 14.1369 6.86934C14.1621 7.42044 14.168 7.5965 14.168 9C14.168 10.4035 14.1621 10.5796 14.1368 11.1307Z" fill="#4D46FA"/>
</g>
<defs>
<clipPath id="clip0_1_241">
<rect width="18" height="18" fill="white"/>
</clipPath>
</defs>
</svg>
