<svg width="14" height="15" viewBox="0 0 14 15" fill="none" xmlns="http://www.w3.org/2000/svg">
<g clip-path="url(#clip0_42_537)">
<path d="M13.5528 13.2518L10.2208 9.78631C11.0775 8.76788 11.5469 7.48648 11.5469 6.15249C11.5469 3.03576 9.01117 0.5 5.89444 0.5C2.7777 0.5 0.241943 3.03576 0.241943 6.15249C0.241943 9.26923 2.7777 11.805 5.89444 11.805C7.0645 11.805 8.17952 11.4521 9.13282 10.7821L12.4902 14.2739C12.6305 14.4196 12.8192 14.5 13.0215 14.5C13.2129 14.5 13.3946 14.427 13.5324 14.2943C13.8254 14.0124 13.8347 13.545 13.5528 13.2518ZM5.89444 1.97456C8.1982 1.97456 10.0724 3.84873 10.0724 6.15249C10.0724 8.45625 8.1982 10.3304 5.89444 10.3304C3.59068 10.3304 1.71651 8.45625 1.71651 6.15249C1.71651 3.84873 3.59068 1.97456 5.89444 1.97456Z" fill="white"/>
</g>
<defs>
<clipPath id="clip0_42_537">
<rect width="14" height="14" fill="white" transform="translate(0 0.5)"/>
</clipPath>
</defs>
</svg>
